<?xml version="1.0" encoding="UTF-8"?>
<svg width="437px" height="632px" viewBox="0 0 437 632" version="1.1" xmlns="http://www.w3.org/2000/svg" xmlns:xlink="http://www.w3.org/1999/xlink">
    <!-- Generator: Sketch 51.1 (57501) - http://www.bohemiancoding.com/sketch -->
    <title>Combined Shape</title>
    <desc>Created with Sketch.</desc>
    <defs></defs>
    <g id="Page-1" stroke="none" stroke-width="1" fill="none" fill-rule="evenodd">
        <g id="Home" transform="translate(-502.000000, -134.000000)" fill="#EFEFEF" fill-rule="nonzero">
            <path d="M889.928203,464.097386 L907.428203,494.408275 L900.5,498.408275 L883,468.097386 L800.687798,325.528469 L775.376505,503.75214 L809.653815,720.170558 L869.08001,750.675852 L815.821404,759.111186 L776.237306,765.380692 L734.838671,504 L708.241339,504 L666.842704,765.380692 L627.258605,759.111186 L574,750.675852 L633.426195,720.170558 L668.073354,501.417004 L640.120186,324.667476 L557.310889,468.097386 L539.810889,498.408275 L532.882686,494.408275 L550.382686,464.097386 L546.052559,461.597386 L524.552559,498.836478 L517.624356,494.836478 L539.124356,457.597386 L533.062178,454.097386 L508.062178,497.398656 L502,493.898656 L527,450.597386 L631.43005,269.719233 L631,267 L698,267 L698,246.516537 C676.859433,237.700492 662,216.835549 662,192.5 C662,160.191342 688.191342,134 720.5,134 C752.808658,134 779,160.191342 779,192.5 C779,216.835549 764.140567,237.700492 743.000001,246.516529 L743,267 L809,267 L808.666532,269.348042 L913.310889,450.597386 L938.310889,493.898656 L932.248711,497.398656 L907.248711,454.097386 L901.186533,457.597386 L922.686533,494.836478 L915.75833,498.836478 L894.25833,461.597386 L889.928203,464.097386 Z" id="Combined-Shape"></path>
        </g>
    </g>
</svg>
